<svg xmlns="http://www.w3.org/2000/svg" xmlns:xlink="http://www.w3.org/1999/xlink" width="0" height="0" style="position:absolute">
	
		<symbol id="icon_1" viewBox="0 0 24 23">
			<path d="M5.848 22.65c-1 0-1.933-.383-2.8-1.15-.833-.8-1.5-1.833-2-3.1a11.622 11.622 0 0 1-.7-4.05c0-2.2.384-4.267 1.15-6.2.8-1.967 1.767-3.617 2.9-4.95C5.532 1.833 6.615.867 7.648.3h.05l1.75 1.6v.7c-.833.767-1.616 1.867-2.35 3.3-.733 1.4-1.1 3.133-1.1 5.2 0 1.067.15 1.933.45 2.6.3.667.75 1.4 1.35 2.2.5.633.867 1.183 1.1 1.65.234.467.35 1.033.35 1.7 0 1-.333 1.817-1 2.45-.633.633-1.433.95-2.4.95zm13.9 0c-1 0-1.916-.383-2.75-1.15-.833-.8-1.5-1.833-2-3.1a11.621 11.621 0 0 1-.7-4.05c0-2.2.384-4.267 1.15-6.2.8-1.967 1.767-3.633 2.9-5C19.482 1.783 20.565.833 21.598.3h.05l1.7 1.6v.7c-.833.767-1.616 1.867-2.35 3.3-.733 1.4-1.1 3.133-1.1 5.2 0 1.067.15 1.933.45 2.6.3.667.75 1.4 1.35 2.2.5.633.867 1.183 1.1 1.65.234.467.35 1.033.35 1.7 0 1-.333 1.817-1 2.45-.633.633-1.433.95-2.4.95z"></path>
		</symbol>
	
		<symbol id="icon_2" viewBox="0 0 23 23">
			<path d="M17.5 0c1 0 1.933.383 2.8 1.15.833.8 1.5 1.833 2 3.1.467 1.267.7 2.617.7 4.05 0 2.2-.383 4.267-1.15 6.2-.8 1.967-1.767 3.617-2.9 4.95-1.133 1.367-2.217 2.333-3.25 2.9h-.05l-1.75-1.6v-.7c.833-.767 1.617-1.867 2.35-3.3.733-1.4 1.1-3.133 1.1-5.2 0-1.067-.15-1.933-.45-2.6-.3-.667-.75-1.4-1.35-2.2-.5-.633-.867-1.183-1.1-1.65-.233-.467-.35-1.033-.35-1.7 0-1 .333-1.817 1-2.45.633-.633 1.433-.95 2.4-.95zM3.6 0c1 0 1.917.383 2.75 1.15.833.8 1.5 1.833 2 3.1.467 1.267.7 2.617.7 4.05 0 2.2-.383 4.267-1.15 6.2-.8 1.967-1.767 3.633-2.9 5s-2.217 2.317-3.25 2.85H1.7L0 20.75v-.7c.833-.767 1.617-1.867 2.35-3.3.733-1.4 1.1-3.133 1.1-5.2 0-1.067-.15-1.933-.45-2.6-.3-.667-.75-1.4-1.35-2.2-.5-.633-.867-1.183-1.1-1.65C.317 4.633.2 4.067.2 3.4c0-1 .333-1.817 1-2.45C1.833.317 2.633 0 3.6 0z"></path>
		</symbol>
	
		<symbol id="icon_3" viewBox="0 0 10 10">
			<path d="M4.718 6.462a.95.95 0 0 0 .617-.214.753.753 0 0 0 .292-.535h.624a1.196 1.196 0 0 1-.228.631 1.5 1.5 0 0 1-.563.478A1.61 1.61 0 0 1 4.718 7c-.525 0-.943-.175-1.255-.524C3.154 6.124 3 5.644 3 5.036v-.11c0-.376.069-.71.207-1.003.138-.292.335-.519.592-.68.259-.162.564-.243.916-.243.432 0 .791.13 1.076.389.288.259.441.595.46 1.009h-.624a.899.899 0 0 0-.285-.614.872.872 0 0 0-.627-.242c-.335 0-.596.121-.78.364-.184.24-.275.588-.275 1.044v.125c0 .444.091.787.274 1.027.183.24.444.36.784.36z" fill="#fff" fill-opacity=".5"></path>
		</symbol>
	
		<symbol id="telephone" viewBox="0 0 29 29">
			<path d="M20.038 15.205c-.056.085-.056.17-.085.282a.688.688 0 0 0 .62.732.688.688 0 0 0 .733-.62c0-.084 0-.169.028-.31v-.31a7.45 7.45 0 0 0-.394-2.367c-.338-.986-.93-1.86-1.635-2.593a7.134 7.134 0 0 0-3.156-1.832 7.476 7.476 0 0 0-1.776-.225c-.197 0-.394 0-.62.028l-.592.085c-.366.056-.62.422-.535.76.056.367.422.62.76.536.17-.028.31-.056.48-.056h.084c.141 0 .282-.028.423-.028 1.55 0 2.987.62 4.002 1.662a5.678 5.678 0 0 1 1.663 3.946v.31z"></path><path d="M23.758 15.825a.688.688 0 0 0 .62.733.688.688 0 0 0 .733-.62c.028-.31.028-.62.028-.93 0-.62-.056-1.212-.14-1.804-.367-2.255-1.466-4.284-3.016-5.834-1.776-1.775-4.143-2.931-6.764-3.128-.282-.028-.592-.028-.874-.028-.31 0-.62 0-.93.028-.31.028-.62.056-.93.112-.367.057-.62.423-.536.761.057.367.423.62.761.536.198-.028.367-.056.564-.085.085 0 .17-.028.254-.028.281-.028.563-.028.817-.028.958 0 1.86.14 2.734.395a9.369 9.369 0 0 1 3.974 2.367 9.681 9.681 0 0 1 2.113 3.185 9.527 9.527 0 0 1 .677 3.494v.282a2.304 2.304 0 0 0-.085.592z"></path><path d="M24.716 4.664a14.632 14.632 0 0 0-10.4-4.312c-.422 0-.845.029-1.267.057a9.778 9.778 0 0 0-1.269.169c-.366.056-.62.423-.535.76.056.367.423.62.76.536.198-.028.367-.056.564-.084.198-.028.395-.057.592-.057.395-.028.761-.056 1.156-.056 3.664 0 6.99 1.494 9.413 3.89a13.266 13.266 0 0 1 3.89 9.412v.62c0 .17-.029.339-.029.536a.688.688 0 0 0 .62.733.688.688 0 0 0 .733-.62 19.1 19.1 0 0 0 .056-1.24c0-4.03-1.634-7.694-4.284-10.344zM27.957 21.743l-4.988-2.677c-1.663-.902-1.72-.31-3.467 1.55-.422.451-1.211 1.635-2.142 1.41-1.944-.48-5.58-3.326-6.763-4.623-.564-.62-2.988-3.579-3.016-4.537-.056-1.466 3.156-2.198 2.114-4.989L7.468 2.89C5.383-1.902-.452 5.764.028 9.343c1.24 8.821 16.712 23.082 25.336 18.375 1.917-1.07 4.51-4.82 2.593-5.975z"></path>
		</symbol>
	
		<symbol id="up_arrow" viewBox="0 0 8 8">
			<path fill-rule="evenodd" clip-rule="evenodd" d="M4.455 7.636V2.105l2.54 2.54L7.636 4 4 .364.364 4l.64.64 2.541-2.535v5.531h.91z"></path>
		</symbol>
	
</svg>
